<svg xmlns="http://www.w3.org/2000/svg" viewBox="0 0 1538.55 1262.68"><defs><style>.cls-1{fill:#fff;}</style></defs><title>Asset 1</title><g id="Layer_2" data-name="Layer 2"><g id="Layer_1-2" data-name="Layer 1"><path class="cls-1" d="M1014.19,0c-6.57,24.91-12.25,55.58-17.13,89.7-12.77-3.34-30.56-5.17-46.23,3.92,5.95-36.57,11.38-66.69,15.3-87.46C945.29,32.94,926.91,63,910.74,95.09c-3.82-8-12.81-21.83-29.87-23.22,15-26.64,30.2-50.56,45-71.87H719.27C711.68,51,707.64,113.14,706,178.55c-12.4-12.54-45.19-9.65-57.48-8,.22-68.61,1-128.51,1.72-170.52H597.47c9.39,2.94.7,17.13,0,25.64-.52,6.31,4.11,90.18,6.57,133.54a195.09,195.09,0,0,0-54.78,12.66,357.39,357.39,0,0,0-27.15-40.65C516.58,82.87,509.31,19.52,508.29,9.8c-.41-4.15,4.62-7,12.51-8.85V0h0a35.73,35.73,0,0,0-35.73,35.73v497a35.72,35.72,0,0,0,35.73,35.73h19.26s-11.38-53.52-12-68.23c-.07-1.69,1.44-3.31,4.08-4.81,26.89-6.2,79.57-16.18,107.08-7.37a1.64,1.64,0,0,1-.07.84c-3.81,12,0,79.54,0,79.57h17c-1.58-29.16-2.87-59.72-3.89-91-3.82-27-3.16-53.26-5.62-62.11s-3.48-10.71-2.05-16.39c.22-.92,2.27-1.84,5.47-2.72,1.13-.22,37.45-7.41,56.93-4a.35.35,0,0,1,0,.18c4.26.7,6.71,1.91,6.16,3.74-2.86,8.95-2.34,96-2.34,96.3,1.32,28.51,2.71,54.22,4,76.05h16.88c2.24-31.18,8-73.3,11.48-99.78,1.25-9.69,5.36-27.33,6.06-30.6.58-2.64,2.6-4.95,5.54-6.86,0-.22.07-.44.11-.7A104.39,104.39,0,0,1,784.72,427c14.38.59,23.22,2.46,26.82,3.34,0,.15,0,.26,0,.37,4.18,2.89,6.42,6.82,5.36,11.88-1.11,5.4-6.31,20.47-9,34.08-5.43,27.48-9.72,65.2-12.33,91.79H914.77c-9.13-12.65-4.25-86.72-3.67-120.11.08-5.17-3.19-10.12-3.19-12.91,0-3.82,2.61-7.08,6.82-9.69q1.11-24.54,2.76-49.12c.69-11.63,1.87-30.05,3-48.57s2.24-37.28,2.87-49.56c.33-6.35-2.17-12-1.51-13.8a3.74,3.74,0,0,1,1.25-1.43c23.92-9.65,55.72,1.58,57.82,2.31,2.16,1.29,3,2.75,2.09,4.4s-1.84,5.32-2.75,8.52a78.18,78.18,0,0,0-2.5,12.18c-2.64,40.94-4.62,81.22-6.16,118.31-10.86-1.47-38.63-3.34-56.83,16.73,1.5-.55,35.7-14.16,59.91-.77a9.5,9.5,0,0,1,3.37,10.49c-.55,2.05-5.54,5.28-6.09,8.4-1.1,6.68-1.94,15.48-2.6,25.28-1,30.48-1.58,56.79-2,76.82,0,13.46.07,22.52.07,22.52h50.3a35.73,35.73,0,0,0,35.73-35.73v-497A35.73,35.73,0,0,0,1017.75,0ZM535,470.83c-1.69-36.91-3.27-74.69-4.62-112.37-5-29.24-14.35-103.27-17.69-140.07-.91-10.2-4.47-16.84-4.36-19.7.11-2.42,2.93-4.77,7.63-6.93C541,185,593.25,173.2,619.45,184.61a4.08,4.08,0,0,1,1.76,3.74c-.26,2.38-5.36,6.86-5.58,13.61-1.43,42.11,1.65,155.18,1.65,155.33,4.07,41.82,8.15,82,12,118.79C612,470.76,574.47,462,535,470.83ZM705.15,222.32c-.59,53,.11,106.9,1.46,157.71h-1.06c-6.27,0-38.23.77-55.47,16.07-1-52-1.5-104.33-1.65-154.15-1.36-8.85-5.72-39.44-4.55-51.81.22-2.2,1.87-4,4.51-5.5v-.26c29.31-7.19,57.45-4.21,59-4,3,.51,5.1,1.17,5.8,1.91C717.44,186.66,706.54,218.36,705.15,222.32Zm189.26-92.6C877.2,168.79,862.9,210,850.94,251.19c-10.53-5.21-32.36-13.24-49.53-.88a64.2,64.2,0,0,1,11.63-.95c9.54,0,23.44,1.79,35.44,10.27a2,2,0,0,0-.07.26c2.89,3,4.21,6.31,3,9.83-.77,2.31-5.61,5.83-7.34,12-5.24,18.71-13.5,52.46-21,84.2-4.4,22-8.22,43.51-11.48,64-21.76-11.56-47-10-55.43-9,4.88-50.22,26.74-121.94,35.77-151.14,1.32-4.22-2.46-7.67-1.62-9.91,1.69-4.73,5.8-7.78,11.08-9.5a1081.94,1081.94,0,0,1,53.78-129.83h0S866,89.29,867.48,81.77A2.9,2.9,0,0,1,869,80.16v.07S900.46,77,913,100.7c-.07-.25-.25-.8-.55-1.65a3.08,3.08,0,0,1,.59,1.76C912.46,105.29,894.78,129.25,894.41,129.72ZM1003.48,110c-.59,1.58-5.54,3.49-7.19,10.6-5.32,22.75-10.6,67.65-10.6,67.65-2.32,24.88-4.37,50.37-6.17,75.8-15-15.15-36.76-16.36-50.22-15.45,3.45-29.9,7.19-58.62,11-85.48v0c2.06-14.82,3.2-37.13,3.6-51.25.22-6.61-1.72-11.41-.22-12.88a19.58,19.58,0,0,1,5.5-3.93c4.92-.44,33.5-2.23,53.2,10.17A5,5,0,0,1,1003.48,110Z"/><path class="cls-1" d="M509.82,1189.7h4.4v32.35h45.52V1189.7h4.39V1261h-4.39v-35.14H514.22V1261h-4.4Z"/><path class="cls-1" d="M691.21,1225.34a45.93,45.93,0,0,1-2.29,14.62,35.22,35.22,0,0,1-6.65,11.89,30.87,30.87,0,0,1-10.63,7.93,33.75,33.75,0,0,1-14.27,2.9,34.13,34.13,0,0,1-14.33-2.9,30.87,30.87,0,0,1-10.68-7.93,35.19,35.19,0,0,1-6.64-11.89,47.81,47.81,0,0,1,0-29.24,35.05,35.05,0,0,1,6.64-11.88A30.65,30.65,0,0,1,643,1190.9a34.13,34.13,0,0,1,14.33-2.9,33.75,33.75,0,0,1,14.27,2.9,30.64,30.64,0,0,1,10.63,7.94,35.07,35.07,0,0,1,6.65,11.88A45.88,45.88,0,0,1,691.21,1225.34Zm-63.39,0a41.46,41.46,0,0,0,2,13,32,32,0,0,0,5.79,10.63,28.34,28.34,0,0,0,43.42,0,32,32,0,0,0,5.79-10.63,43.12,43.12,0,0,0,0-26,31.86,31.86,0,0,0-5.79-10.63,28.27,28.27,0,0,0-9.23-7.24,27.77,27.77,0,0,0-12.43-2.7,27.53,27.53,0,0,0-21.76,9.94,31.86,31.86,0,0,0-5.79,10.63A41.5,41.5,0,0,0,627.82,1225.34Z"/><path class="cls-1" d="M754.9,1189.7v42.73c0,1.4.07,3,.2,4.89a29.32,29.32,0,0,0,1,5.74,29.61,29.61,0,0,0,2.25,5.79,17.58,17.58,0,0,0,3.94,5.09,18.74,18.74,0,0,0,6.14,3.59,25.27,25.27,0,0,0,8.83,1.35,29.06,29.06,0,0,0,11-1.84,17.73,17.73,0,0,0,7.19-5.3,21.27,21.27,0,0,0,3.95-8.33,46.76,46.76,0,0,0,1.19-11V1189.7H805v42.73a50.26,50.26,0,0,1-1.34,11.88,25.1,25.1,0,0,1-4.55,9.58,21.53,21.53,0,0,1-8.53,6.44,33.12,33.12,0,0,1-13.33,2.35,32.44,32.44,0,0,1-10.78-1.6,23,23,0,0,1-7.43-4.15,19.36,19.36,0,0,1-4.65-5.84,33.68,33.68,0,0,1-3.69-13.12c-.14-2.09-.2-4-.2-5.54V1189.7Z"/><path class="cls-1" d="M914,1210.07a19.28,19.28,0,0,0-1.95-8,16.87,16.87,0,0,0-4.74-5.69,20.63,20.63,0,0,0-7.14-3.44,33.56,33.56,0,0,0-9-1.16,32.87,32.87,0,0,0-6.44.7,20.52,20.52,0,0,0-6.39,2.45,14.46,14.46,0,0,0-4.84,4.69,13.29,13.29,0,0,0-1.9,7.34,11.09,11.09,0,0,0,2.09,7,15.12,15.12,0,0,0,5.5,4.34A35.46,35.46,0,0,0,887,1221q4.39,1,8.89,1.89c3.06.61,6,1.32,8.93,2.15a31,31,0,0,1,7.79,3.39,16.82,16.82,0,0,1,5.54,5.59,16.45,16.45,0,0,1,2.09,8.64,17.18,17.18,0,0,1-2.39,9.38,20.17,20.17,0,0,1-6,6.19,25.08,25.08,0,0,1-8.09,3.45,37.1,37.1,0,0,1-8.53,1,49.24,49.24,0,0,1-11.78-1.35,26.35,26.35,0,0,1-9.58-4.4,21.23,21.23,0,0,1-6.45-7.83,25.52,25.52,0,0,1-2.24-11.68h4.39a20,20,0,0,0,1.7,9.93,18,18,0,0,0,5.54,6.64,23.05,23.05,0,0,0,8.34,3.75,43.37,43.37,0,0,0,10.08,1.14,32.65,32.65,0,0,0,6.83-.79,21.14,21.14,0,0,0,6.69-2.7,16.51,16.51,0,0,0,5.09-5,13.73,13.73,0,0,0,2.05-7.78,12.11,12.11,0,0,0-2.09-7.34,15.42,15.42,0,0,0-5.55-4.59,35.38,35.38,0,0,0-7.78-2.79q-4.35-1-8.93-2t-8.89-2.1a30,30,0,0,1-7.79-3.24,16.74,16.74,0,0,1-5.49-5.29,15.19,15.19,0,0,1-2.09-8.34,16.89,16.89,0,0,1,2.14-8.73,17.53,17.53,0,0,1,5.59-5.89,25.11,25.11,0,0,1,7.74-3.3,35.61,35.61,0,0,1,8.49-1,41.82,41.82,0,0,1,10.43,1.25,25.09,25.09,0,0,1,8.48,3.89,19.52,19.52,0,0,1,5.84,6.84,24.15,24.15,0,0,1,2.5,10.09Z"/><path class="cls-1" d="M980.31,1189.7h47.91v3.79H984.7v28.56h40.93v3.79H984.7v31.34h44v3.8H980.31Z"/><path class="cls-1" d="M0,837H67.11q38.58,0,59.07,15.75t20.46,54q0,24.83-10.06,38.75t-29.2,16.93q47,9.09,47,67.12,0,39.24-19.13,59.23t-56.71,20H0ZM66.44,948.06q21.48,0,29.37-9.56c5.24-6.39,7.88-16.71,7.88-31q0-20.81-10.23-28.34t-34.07-7.57H49.33v76.52Zm2,125.83q21.8,0,30.19-10.4c5.6-6.94,8.4-18.32,8.4-34.22q0-24.49-9.23-35.74t-31-11.25H49.33v91.61Z"/><path class="cls-1" d="M311.07,837h53l54.36,271.79h-46L361.74,1046H314.42l-11.07,62.75H256.71Zm45.3,177.5L337.91,900.41,319.45,1014.5Z"/><path class="cls-1" d="M533.54,837h51.34l38.59,188.23L663.41,837h50l5,271.79h-36.9l-4-188.91-38.59,188.91H609.05l-39.27-189.6-3.69,189.6H528.85Z"/><path class="cls-1" d="M842.59,837H909.7q38.58,0,59.07,15.75t20.46,54q0,24.83-10.06,38.75T950,962.48q47,9.09,47,67.12,0,39.24-19.13,59.23t-56.71,20H842.59ZM909,948.06q21.48,0,29.37-9.56c5.24-6.39,7.88-16.71,7.88-31q0-20.81-10.23-28.34T902,871.54H891.92v76.52Zm2,125.83q21.8,0,30.19-10.4c5.6-6.94,8.4-18.32,8.4-34.22q0-24.49-9.23-35.74t-31-11.25H891.92v91.61Z"/><path class="cls-1" d="M1127.15,1089.84q-18.12-22.65-18.12-66.27v-102q0-43.24,18.12-65.43T1187.54,834q42,0,60.08,22.14t18.12,65.43v102q0,43.29-18.3,66.11t-59.9,22.8Q1145.27,1112.48,1127.15,1089.84Zm82.54-24.33q5.71-10.41,5.71-30.2V910.16c0-13.22-1.85-23.16-5.53-29.88s-11.13-10.08-22.33-10.08-18.68,3.42-22.47,10.24-5.71,16.72-5.71,29.72v125.15q0,19.79,5.71,30.2t22.47,10.4Q1204,1075.91,1209.69,1065.51Z"/><path class="cls-1" d="M1400,1089.84q-18.14-22.65-18.12-66.27v-102q0-43.24,18.12-65.43T1460.35,834q41.94,0,60.08,22.14t18.12,65.43v102q0,43.29-18.3,66.11t-59.9,22.8Q1418.08,1112.48,1400,1089.84Zm82.54-24.33q5.71-10.41,5.7-30.2V910.16c0-13.22-1.84-23.16-5.53-29.88s-11.12-10.08-22.32-10.08-18.68,3.42-22.47,10.24-5.71,16.72-5.71,29.72v125.15q0,19.79,5.71,30.2t22.47,10.4Q1476.79,1075.91,1482.5,1065.51Z"/></g></g></svg>